<svg width="24" height="31" viewBox="0 0 24 31" fill="none" xmlns="http://www.w3.org/2000/svg">
<mask id="mask0_38_288" style="mask-type:alpha" maskUnits="userSpaceOnUse" x="0" y="0" width="24" height="31">
<rect x="0.79248" y="0.31543" width="23.1694" height="30.1053" rx="11.5847" fill="#D9D9D9"/>
</mask>
<g mask="url(#mask0_38_288)">
<path d="M10.0803 20.5145C8.10318 20.5145 6.42884 19.7631 5.05732 18.2604C3.68577 16.7576 3 14.9231 3 12.7568C3 10.5905 3.68577 8.75591 5.05732 7.25314C6.42884 5.7504 8.10318 4.99902 10.0803 4.99902C12.0575 4.99902 13.7318 5.7504 15.1034 7.25314C16.4749 8.75591 17.1607 10.5905 17.1607 12.7568C17.1607 13.6627 17.0219 14.5279 16.7443 15.3525C16.2907 16.6999 16.2851 18.2765 17.202 19.3629L19.7539 22.3865C19.9142 22.5622 19.9962 22.783 19.9999 23.0489C20.0036 23.3148 19.9216 23.5396 19.7539 23.7234C19.5861 23.9071 19.3828 23.999 19.1438 23.999C18.9048 23.999 18.7015 23.9071 18.5338 23.7234L15.9341 20.6432C15.1027 19.658 13.6156 19.5987 12.4159 20.0705C11.6634 20.3665 10.8848 20.5145 10.0803 20.5145ZM10.0803 18.6117C11.5721 18.6117 12.8357 18.0445 13.871 16.9101C14.9063 15.7757 15.424 14.3913 15.424 12.7568C15.424 11.1223 14.9063 9.73781 13.871 8.60341C12.8357 7.46901 11.5721 6.90181 10.0803 6.90181C8.58855 6.90181 7.32499 7.46901 6.28965 8.60341C5.25433 9.73781 4.73667 11.1223 4.73667 12.7568C4.73667 14.3913 5.25433 15.7757 6.28965 16.9101C7.32499 18.0445 8.58855 18.6117 10.0803 18.6117Z" fill="#87929F"/>
</g>
</svg>
