<svg width="15" height="15" viewBox="0 0 15 15" fill="none" xmlns="http://www.w3.org/2000/svg">
<mask id="mask0_49_350" style="mask-type:alpha" maskUnits="userSpaceOnUse" x="0" y="0" width="15" height="15">
<rect width="15" height="15" fill="#D9D9D9"/>
</mask>
<g mask="url(#mask0_49_350)">
<path d="M3.31731 12.8125C3.00561 12.8125 2.73939 12.7021 2.51864 12.4813C2.29788 12.2606 2.1875 11.9944 2.1875 11.6827V3.31731C2.1875 3.00562 2.29788 2.73939 2.51864 2.51864C2.73939 2.29788 3.00561 2.1875 3.31731 2.1875H11.6827C11.9944 2.1875 12.2606 2.29788 12.4813 2.51864C12.7021 2.73939 12.8125 3.00562 12.8125 3.31731V11.6827C12.8125 11.9944 12.7021 12.2606 12.4813 12.4813C12.2606 12.7021 11.9944 12.8125 11.6827 12.8125H3.31731ZM6.40625 11.875V7.96872H3.12498V11.6827C3.12498 11.7388 3.14302 11.7848 3.17908 11.8209C3.21514 11.857 3.26122 11.875 3.31731 11.875H6.40625ZM7.34372 11.875H11.6827C11.7388 11.875 11.7848 11.857 11.8209 11.8209C11.857 11.7848 11.875 11.7388 11.875 11.6827V7.96872H7.34372V11.875ZM3.12498 7.03125H11.875V3.31731C11.875 3.26122 11.857 3.21514 11.8209 3.17908C11.7848 3.14302 11.7388 3.12498 11.6827 3.12498H3.31731C3.26122 3.12498 3.21514 3.14302 3.17908 3.17908C3.14302 3.21514 3.12498 3.26122 3.12498 3.31731V7.03125Z" fill="#0275FF"/>
</g>
</svg>
