<svg width="23" height="23" viewBox="0 0 23 23" fill="none" xmlns="http://www.w3.org/2000/svg">
<path fill-rule="evenodd" clip-rule="evenodd" d="M11.5 2.3C6.41898 2.3 2.3 6.41898 2.3 11.5C2.3 16.5811 6.41898 20.7 11.5 20.7C16.5811 20.7 20.7 16.5811 20.7 11.5C20.7 6.41898 16.5811 2.3 11.5 2.3ZM0 11.5C0 5.14873 5.14873 0 11.5 0C17.8513 0 23 5.14873 23 11.5C23 17.8513 17.8513 23 11.5 23C5.14873 23 0 17.8513 0 11.5Z" fill="#FF9800"/>
<path fill-rule="evenodd" clip-rule="evenodd" d="M11.4996 6.27246C12.0769 6.27246 12.545 6.74053 12.545 7.31792V12.5452C12.545 13.1226 12.0769 13.5906 11.4996 13.5906C10.9222 13.5906 10.4541 13.1226 10.4541 12.5452V7.31792C10.4541 6.74053 10.9222 6.27246 11.4996 6.27246Z" fill="#FF9800"/>
<path fill-rule="evenodd" clip-rule="evenodd" d="M11.4996 14.6362C12.0769 14.6362 12.545 15.1017 12.545 15.6759V15.6875C12.545 16.2617 12.0769 16.7271 11.4996 16.7271C10.9222 16.7271 10.4541 16.2617 10.4541 15.6875V15.6759C10.4541 15.1017 10.9222 14.6362 11.4996 14.6362Z" fill="#FF9800"/>
</svg>
